<svg xmlns="http://www.w3.org/2000/svg" version="1.1" xmlns:xlink="http://www.w3.org/1999/xlink" xmlns:svgjs="http://svgjs.dev/svgjs" viewBox="0 0 1920 1080"><rect width="1920" height="1080" fill="#686de0"></rect><g transform="matrix(0.8131727983645296,0.8131727983645295,-0.8131727983645295,0.8131727983645296,615.097531460541,-665.0916037431216)"><path d="M0,-1080C4.840768900917574,-951.1939575420708,26.314719454271106,-573.070860295328,29.044613405505444,-307.16374525242514C31.774507356739782,-41.256630209522314,27.205686741308938,234.8304326273124,16.37936370740603,515.4426902574169C5.5530406735031175,796.0549478875214,-33.18343084667769,1102.4169155711045,-35.913324797912026,1376.5098005282016C-38.643218749146364,1650.6026854852987,-5.985554132985338,2029.4183000880337,0,2160L 1920 2160 L 1920 -1080 Z" fill="url(&quot;#SvgjsLinearGradient1080&quot;)"></path><path d="M480,-1080C480.91766629159696,-975.6462842442909,494.2223441365572,-670.7399441659966,485.5059977495818,-453.87770546574535C476.78965136260643,-237.01546676549407,429.13245113980645,10.537001445382884,427.70192167814776,221.1734322015076C426.27139221648906,431.80986295763233,473.7215943757756,600.5678730543049,476.9228209796298,809.9408790710031C480.124047583484,1019.3138850877014,446.39641813121114,1252.4016148135308,446.9092813012728,1477.411468301697C447.4221444713345,1702.421321789863,474.4848802168788,2046.2352447169494,480,2160L 1920 2160 L 1920 -1080 Z" fill="url(&quot;#SvgjsLinearGradient1081&quot;)"></path><path d="M960,-1080C962.2284263738184,-994.2457622974507,965.7256424204606,-742.5950775327639,973.3705582429104,-565.4745737847045C981.0154740653602,-388.3540700366451,1016.2569261690179,-208.53385075903228,1005.8694949346984,-17.27697751164365C995.482063700379,173.97989573574498,918.4415621264602,392.0647733197309,911.0459708369938,582.0666656996273C903.6503795475273,772.0685580795237,957.3118136920498,941.6355129102571,961.4959471978997,1122.7343767677348C965.6800807037496,1303.8332406252125,936.4000964050763,1495.7822449724492,936.1507718720931,1668.6598488444934C935.9014473391098,1841.5374527165375,956.0251286453488,2078.1099748074157,960,2160L 1920 2160 L 1920 -1080 Z" fill="url(&quot;#SvgjsLinearGradient1082&quot;)"></path><path d="M1440,-1080C1445.574685325592,-981.4709331021838,1473.841269029329,-704.2518749016285,1473.4481119535528,-488.8255986131032C1473.0549548777767,-273.3993223245778,1447.6269397330877,-18.551868410512725,1437.6410575453428,212.5576577311524C1427.655175357598,443.66718387281753,1415.7472904289302,683.7031331421771,1413.5328188270837,897.8315582368876C1411.3183472252372,1111.9599833315983,1419.9430310721111,1286.966801338897,1424.354227934264,1497.3282082994158C1428.7654247964167,1707.6896152599345,1437.3923713223774,2049.554701383236,1440,2160L 1920 2160 L 1920 -1080 Z" fill="url(&quot;#SvgjsLinearGradient1083&quot;)"></path></g><defs><linearGradient x1="0.1" y1="0" x2="0" y2="1" id="SvgjsLinearGradient1080"><stop stop-color="#686de0" offset="0"></stop><stop stop-color="#6881e0" offset="0"></stop></linearGradient><linearGradient x1="0.1" y1="0" x2="0" y2="1" id="SvgjsLinearGradient1081"><stop stop-color="#363dd6" offset="0"></stop><stop stop-color="#3658d6" offset="0.25"></stop></linearGradient><linearGradient x1="0.1" y1="0" x2="0" y2="1" id="SvgjsLinearGradient1082"><stop stop-color="#2329ac" offset="0"></stop><stop stop-color="#2340ac" offset="0.5"></stop></linearGradient><linearGradient x1="0.1" y1="0" x2="0" y2="1" id="SvgjsLinearGradient1083"><stop stop-color="#191d7a" offset="0"></stop><stop stop-color="#192d7a" offset="0.75"></stop></linearGradient></defs></svg>